<?xml version="1.0" encoding="UTF-8" standalone="no"?>
<!-- Created with Inkscape (http://www.inkscape.org/) -->

<svg
   width="541.86664mm"
   height="541.86664mm"
   viewBox="0 0 541.86664 541.86664"
   version="1.1"
   id="svg1"
   xmlns="http://www.w3.org/2000/svg"
   xmlns:svg="http://www.w3.org/2000/svg">
  <defs
     id="defs1" />
  <g
     id="layer2"
     transform="translate(-1103.7333)">
    <g
       id="g77"
       style="display:none">
      <path
         style="-inkscape-font-specification:'Archivo Ultra-Bold';fill:#2340cc;stroke-width:79.3701;stroke-miterlimit:6.7;paint-order:stroke fill markers"
         d="m 704.67307,814.08996 v -27.48 h 6.36 l 10,12.76 q 0.28,0.32 0.72,0.92 0.48,0.6 0.92,1.24 0.44,0.6 0.64,0.96 l 0.2,-0.04 q 0,-0.88 0,-1.68 0,-0.84 0,-1.4 v -12.76 h 6.64 v 27.48 h -6.32 l -10.6,-13.44 q -0.52,-0.64 -1,-1.32 -0.44,-0.68 -0.72,-1.12 l -0.2,0.04 q 0,0.64 0,1.32 0,0.64 0,1.08 v 13.44 z"
         id="text6"
         aria-label="N"
         transform="matrix(13.685927,0,0,13.707486,-8995.6632,-10699.853)" />
      <path
         style="fill:none;stroke:#000000;stroke-width:0.352777;stroke-miterlimit:6.7;stroke-dasharray:none;stroke-opacity:1;paint-order:stroke fill markers"
         d="M 551.86664,541.86663 1093.7333,3.8146974e-6"
         id="path27" />
      <path
         style="fill:none;stroke:#000000;stroke-width:0.352777;stroke-miterlimit:6.7;stroke-dasharray:none;stroke-opacity:1;paint-order:stroke fill markers"
         d="M 1093.7333,541.86663 551.86664,3.8146974e-6"
         id="path28" />
      <path
         style="fill:none;stroke:#000000;stroke-width:0.960177;stroke-miterlimit:6.7;stroke-dasharray:none;stroke-opacity:1;paint-order:markers fill stroke"
         id="path45"
         width="90.443504"
         height="90.443504"
         x="648.39197"
         y="368.87927"
         d="M 738.83547,368.87927 H 467.50496 m 271.33051,90.44351 H 467.50496 m 271.33051,90.4435 H 467.50496 m 271.33051,90.44351 H 467.50496 M 738.83547,368.87927 V 640.20979 M 648.39197,368.87927 V 640.20979 M 557.94846,368.87927 v 271.33052 m -90.4435,-271.33052 v 271.33052"
         transform="matrix(0.33374092,0,0,0.33374092,621.49712,102.54572)" />
      <path
         style="fill:none;stroke:#000000;stroke-width:0.960177;stroke-miterlimit:6.7;stroke-dasharray:none;stroke-opacity:1;paint-order:markers fill stroke"
         id="path49"
         width="90.443504"
         height="90.443504"
         x="648.39197"
         y="368.87927"
         d="M 738.83547,368.87927 H 467.50496 m 271.33051,90.44351 H 467.50496 m 271.33051,90.4435 H 467.50496 m 271.33051,90.44351 H 467.50496 M 738.83547,368.87927 V 640.20979 M 648.39197,368.87927 V 640.20979 M 557.94846,368.87927 v 271.33052 m -90.4435,-271.33052 v 271.33052"
         transform="matrix(-0.33374092,0,0,0.33374092,1205.5309,102.54572)" />
      <path
         style="fill:none;stroke:#000000;stroke-width:0.960177;stroke-miterlimit:6.7;stroke-dasharray:none;stroke-opacity:1;paint-order:markers fill stroke"
         id="path67"
         width="90.443504"
         height="90.443504"
         x="648.39197"
         y="368.87927"
         d="M 738.83547,368.87927 H 467.50496 m 271.33051,90.44351 H 467.50496 m 271.33051,90.4435 H 467.50496 m 271.33051,90.44351 H 467.50496 M 738.83547,368.87927 V 640.20979 M 648.39197,368.87927 V 640.20979 M 557.94846,368.87927 v 271.33052 m -90.4435,-271.33052 v 271.33052"
         transform="matrix(-0.33374092,0,0,0.33374092,1114.6564,102.54572)" />
      <path
         id="circle68"
         style="fill:none;stroke:#ff0000;stroke-width:0.79375;stroke-linecap:butt;stroke-linejoin:bevel;stroke-miterlimit:6.7;stroke-dasharray:none;stroke-dashoffset:0;stroke-opacity:1;paint-order:fill markers stroke"
         d="m 822.80078,164.66602 c -27.82117,-3.4e-4 -55.47004,11.45246 -75.14258,31.125 -19.67254,19.67254 -31.12534,47.3214 -31.125,75.14257 3.8e-4,27.82072 11.45253,55.47062 31.125,75.14258 19.67247,19.67196 47.32187,31.12339 75.14258,31.12305 27.82026,-3.8e-4 55.46874,-11.45311 75.14063,-31.125 19.67189,-19.67189 31.12462,-47.32037 31.125,-75.14063 3.4e-4,-27.82071 -11.45109,-55.4701 -31.12305,-75.14257 -19.67196,-19.67247 -47.32187,-31.12462 -75.14258,-31.125 z" />
      <path
         id="path68"
         style="fill:none;stroke:#ff0000;stroke-width:0.79375;stroke-linecap:butt;stroke-linejoin:bevel;stroke-miterlimit:6.7;stroke-dasharray:none;stroke-dashoffset:0;stroke-opacity:1;paint-order:fill markers stroke"
         d="m 822.80078,164.66602 c -27.82117,-3.4e-4 -55.47004,11.45246 -75.14258,31.125 -19.67254,19.67254 -31.12534,47.3214 -31.125,75.14257 3.8e-4,27.82072 11.45253,55.47062 31.125,75.14258 19.67247,19.67196 47.32187,31.12339 75.14258,31.12305 27.82026,-3.8e-4 55.46874,-11.45311 75.14063,-31.125 19.67189,-19.67189 31.12462,-47.32037 31.125,-75.14063 3.4e-4,-27.82071 -11.45109,-55.4701 -31.12305,-75.14257 -19.67196,-19.67247 -47.32187,-31.12462 -75.14258,-31.125 z" />
      <path
         id="path69"
         style="fill:none;stroke:#ff0000;stroke-width:0.79375;stroke-linecap:butt;stroke-linejoin:bevel;stroke-miterlimit:6.7;stroke-dasharray:none;stroke-dashoffset:0;stroke-opacity:1;paint-order:fill markers stroke"
         d="m 822.80078,195.30859 c -19.41161,-2.3e-4 -39.74812,8.4239 -53.47461,22.15039 -13.72649,13.7265 -22.15063,34.06301 -22.15039,53.47461 2.7e-4,19.41203 8.423,39.74953 22.14844,53.47461 13.72573,13.72538 34.06455,22.14868 53.47656,22.14844 19.411,-2.6e-4 39.7469,-8.42463 53.47266,-22.15039 13.72576,-13.72576 22.15012,-34.06166 22.15039,-53.47266 2.4e-4,-19.41201 -8.42306,-39.75082 -22.14844,-53.47656 -13.72508,-13.72544 -34.0626,-22.14817 -53.47461,-22.14844 z" />
      <path
         id="path70"
         style="fill:none;stroke:#ff0000;stroke-width:0.79375;stroke-linecap:butt;stroke-linejoin:bevel;stroke-miterlimit:6.7;stroke-dasharray:none;stroke-dashoffset:0;stroke-opacity:1;paint-order:fill markers stroke"
         d="m 822.80078,134.94141 c -36.87732,-4.4e-4 -70.08545,13.75732 -96.16016,39.83203 -26.07467,26.07469 -39.83248,59.2828 -39.83203,96.16015 5.2e-4,36.87337 13.75229,70.085 39.83008,96.16211 26.07782,26.07716 59.28645,39.82858 96.16211,39.82813 36.87669,-5e-4 70.08445,-13.75828 96.1582,-39.83203 26.07377,-26.07377 39.83152,-59.28156 39.83204,-96.15821 4.5e-4,-36.87565 -13.751,-70.0843 -39.82813,-96.16211 -26.07713,-26.07781 -59.28874,-39.82956 -96.16211,-39.83007 z" />
      <path
         id="path71"
         style="fill:none;stroke:#ff0000;stroke-width:0.79375;stroke-linecap:butt;stroke-linejoin:bevel;stroke-miterlimit:6.7;stroke-dasharray:none;stroke-dashoffset:0;stroke-opacity:1;paint-order:fill markers stroke"
         d="m 822.80078,104.43164 c -44.46567,-5.3e-4 -86.2954,17.32861 -117.73437,48.76758 -31.43891,31.43893 -48.76812,73.26865 -48.76758,117.73437 6.3e-4,44.45875 17.32128,86.29281 48.76562,117.73633 31.4433,31.4425 73.27547,48.76422 117.73633,48.76367 44.46471,-6e-4 86.29432,-17.32948 117.73242,-48.76757 31.43813,-31.43814 48.76695,-73.26777 48.76758,-117.73243 5.4e-4,-44.46086 -17.3212,-86.29304 -48.76367,-117.73632 -31.44354,-31.44436 -73.27759,-48.76501 -117.73633,-48.76563 z" />
      <path
         id="path72"
         style="fill:none;stroke:#ff0000;stroke-width:0.79375;stroke-linecap:butt;stroke-linejoin:bevel;stroke-miterlimit:6.7;stroke-dasharray:none;stroke-dashoffset:0;stroke-opacity:1;paint-order:fill markers stroke"
         d="m 822.80078,74.082031 c -52.01432,-6.2e-4 -102.42014,20.881082 -139.19531,57.656249 -36.77509,36.77512 -57.65689,87.18091 -57.65625,139.19531 7.3e-4,52.00446 20.87343,102.41541 57.65625,139.19727 36.78071,36.77978 87.18893,57.65298 139.19531,57.65234 52.01304,-7e-4 102.41897,-20.88186 139.19336,-57.65625 36.77443,-36.77443 57.65556,-87.18039 57.65626,-139.19336 6e-4,-52.0064 -20.87262,-102.41461 -57.65235,-139.19531 C 925.21617,94.955448 874.80522,74.082751 822.80078,74.082031 Z" />
      <path
         id="path73"
         style="fill:none;stroke:#ff0000;stroke-width:0.79375;stroke-linecap:butt;stroke-linejoin:bevel;stroke-miterlimit:6.7;stroke-dasharray:none;stroke-dashoffset:0;stroke-opacity:1;paint-order:fill markers stroke"
         d="m 822.80078,44.066406 c -60.04784,-7.16e-4 -117.96502,23.992367 -160.41992,66.447264 -42.4548,42.45484 -66.44801,100.37197 -66.44727,160.41992 8.5e-4,60.03554 23.98285,117.95857 66.44727,160.42188 42.46165,42.46058 100.38205,66.4441 160.41992,66.44336 60.04606,-8.1e-4 117.9636,-23.9929 160.41797,-66.44727 42.45445,-42.45441 66.44645,-100.37198 66.44725,-160.41797 7e-4,-60.03787 -23.9828,-117.95828 -66.44334,-160.41992 C 940.75933,68.049247 882.83631,44.067237 822.80078,44.066406 Z" />
      <path
         style="fill:none;stroke:#000000;stroke-width:0.960177;stroke-miterlimit:6.7;stroke-dasharray:none;stroke-opacity:1;paint-order:markers fill stroke"
         id="path74"
         width="90.443504"
         height="90.443504"
         x="648.39197"
         y="368.87927"
         d="M 738.83547,368.87927 H 467.50496 m 271.33051,90.44351 H 467.50496 m 271.33051,90.4435 H 467.50496 m 271.33051,90.44351 H 467.50496 M 738.83547,368.87927 V 640.20979 M 648.39197,368.87927 V 640.20979 M 557.94846,368.87927 v 271.33052 m -90.4435,-271.33052 v 271.33052"
         transform="matrix(-0.33374092,0,0,0.33374092,1296.4055,102.54572)" />
      <path
         id="path75"
         style="fill:none;stroke:#ff0000;stroke-width:0.79375;stroke-linecap:butt;stroke-linejoin:bevel;stroke-miterlimit:6.7;stroke-dasharray:none;stroke-dashoffset:0;stroke-opacity:1;paint-order:fill markers stroke"
         d="m 822.80078,225.45312 c -10.69016,-1.2e-4 -24.59971,5.75987 -32.16016,13.32032 -7.56045,7.56046 -13.32044,21.47003 -13.32031,32.16015 1.5e-4,10.69276 5.76103,24.60108 13.31836,32.15821 7.55775,7.55755 21.47052,13.32044 32.16211,13.32031 10.68956,-1.4e-4 24.59838,-5.76049 32.1582,-13.32031 7.55982,-7.55982 13.32017,-21.46863 13.32032,-32.15821 1.3e-4,-10.69158 -5.76274,-24.60434 -13.32032,-32.16211 -7.55711,-7.55731 -21.46547,-13.31821 -32.1582,-13.31836 z" />
      <path
         id="path76"
         style="fill:none;stroke:#ff0000;stroke-width:0.79375;stroke-linecap:butt;stroke-linejoin:bevel;stroke-miterlimit:6.7;stroke-dasharray:none;stroke-dashoffset:0;stroke-opacity:1;paint-order:fill markers stroke"
         d="m 822.80078,255.98828 c -1.85548,-2e-5 -9.25401,3.06261 -10.56836,4.37695 -1.31437,1.31438 -4.37697,8.71294 -4.37695,10.56836 2e-5,1.8603 3.06586,9.25731 4.375,10.56641 1.30969,1.30966 8.71236,4.37698 10.57031,4.37695 1.85489,-2e-5 9.25257,-3.06311 10.56641,-4.37695 1.31383,-1.31383 4.37692,-8.71147 4.37695,-10.56641 2e-5,-1.85795 -3.06726,-9.26059 -4.37695,-10.57031 -1.30908,-1.30911 -8.70615,-4.37497 -10.56641,-4.375 z" />
      <path
         id="path77"
         style="fill:none;stroke:#ff0000;stroke-width:0.79375;stroke-linecap:butt;stroke-linejoin:bevel;stroke-miterlimit:6.7;stroke-dasharray:none;stroke-dashoffset:0;stroke-opacity:1;paint-order:fill markers stroke"
         d="m 822.80078,13.498047 c -68.1909,-8.13e-4 -133.82291,27.188149 -182.03516,75.40039 -48.21211,48.212163 -75.40123,113.844103 -75.40039,182.035153 9.7e-4,68.176 27.17672,133.81469 75.40039,182.03711 48.22022,48.21901 113.85611,75.39733 182.03516,75.39649 68.18853,-9.2e-4 133.82119,-27.18838 182.03322,-75.40039 48.2121,-48.21208 75.3995,-113.84476 75.4004,-182.03321 8e-4,-68.17903 -27.1775,-133.81494 -75.3965,-182.035153 C 956.61546,40.674764 890.97678,13.498991 822.80078,13.498047 Z" />
    </g>
    <g
       id="g129"
       style="display:inline;fill:#000000;fill-opacity:1">
      <path
         d="m 1458.1503,225.65599 v 30.18472 1.65882 19.19056 9.33535 13.69322 l -2.7368,0.54828 c -1.2154,-2.19115 -3.0987,-5.05142 -5.2855,-8.21552 -0.703,-1.01719 -1.4238,-2.05208 -2.2272,-3.16983 -2.4919,9.81879 -6.904,19.23122 -12.8592,27.32857 -2.134,2.90162 -4.3948,5.68926 -6.9014,8.19588 l -5e-4,5.2e-4 c -13.7258,13.72545 -34.0614,22.1498 -53.4722,22.15006 -0.3107,10e-6 -0.6247,-0.0453 -0.9358,-0.0496 l 22.3722,28.41119 c 20.1614,-4.23513 39.1265,-14.26666 53.7037,-28.84372 l 5e-4,-5.1e-4 c 8.6233,-8.6233 15.5544,-18.83243 20.7466,-29.86381 4.499,-9.55848 7.594,-19.73955 9.1353,-30.18472 0.2016,-1.36621 0.4752,-2.72123 0.6227,-4.09433 0.3925,-3.65187 0.6201,-7.3219 0.6202,-10.99778 0,-3.67714 -0.2275,-7.34722 -0.6202,-11.00036 -0.1474,-1.37235 -0.4207,-2.72679 -0.6221,-4.09226 -0.7838,-5.31236 -1.8466,-10.58413 -3.4179,-15.72152 -1.5182,-4.96381 -3.5063,-9.76602 -5.717,-14.4632 z"
         style="fill:#000000;fill-opacity:1;stroke:none;stroke-width:0.79375;stroke-linejoin:bevel;stroke-miterlimit:6.7;paint-order:fill markers stroke"
         id="path129" />
      <path
         d="m 1458.1503,126.83774 v 36.8117 c 4.3702,3.44351 8.6382,7.08061 12.6788,11.12129 l 5e-4,5.1e-4 c 14.8437,14.84404 25.5417,32.05861 32.135,50.88475 3.3843,9.66338 5.7373,19.72689 6.843,30.18472 0.4064,3.84414 0.5979,7.7506 0.6899,11.68611 0.027,1.14329 0.1602,2.2565 0.1602,3.40703 -10e-5,1.14969 -0.1335,2.26199 -0.1602,3.40444 -0.092,3.93597 -0.2838,7.84262 -0.6904,11.68715 -1.1062,10.45813 -3.46,20.52144 -6.8451,30.18472 -6.5948,18.82608 -17.2945,36.03963 -32.1365,50.88165 -15.808,15.80787 -34.2689,27.01078 -54.5492,33.44343 l 19.7978,25.14162 c 20.8403,-8.26526 40.0021,-20.68756 56.3252,-37.01066 h 6e-4 c 20.4587,-20.45878 34.8965,-45.33345 42.5178,-72.45604 2.7545,-9.80269 4.6297,-19.89173 5.5495,-30.18472 0.2471,-2.7647 0.4245,-5.54303 0.5354,-8.33386 v -13.53251 c -0.1109,-2.78558 -0.2884,-5.55878 -0.5349,-8.31836 -0.9194,-10.29276 -2.7944,-20.38171 -5.5485,-30.18472 -7.6194,-27.12158 -22.0549,-51.99722 -42.5157,-72.45862 l -5e-4,-5.2e-4 c -10.3736,-10.37376 -21.8962,-19.1746 -34.2527,-26.35911 z"
         style="fill:#000000;fill-opacity:1;stroke:none;stroke-width:0.79375;stroke-linejoin:bevel;stroke-miterlimit:6.7;paint-order:fill markers stroke"
         id="path128" />
      <path
         d="m 1313.5544,116.0818 c -20.9535,8.264 -40.2217,20.71804 -56.6213,37.11763 v 5.2e-4 c -31.4387,31.4389 -48.7681,73.2683 -48.7676,117.7339 7e-4,44.45851 17.321,86.29199 48.765,117.73545 l 5e-4,5.2e-4 c 10.3732,10.37289 21.8953,19.17327 34.2512,26.35756 v -36.81171 c -4.3697,-3.44312 -8.6365,-7.07958 -12.6768,-11.11973 -2e-4,-2.7e-4 -2e-4,-7.7e-4 -5e-4,-10e-4 -26.0773,-26.077 -39.8291,-59.28806 -39.8296,-96.16106 -5e-4,-36.87711 13.7573,-70.0854 39.8317,-96.16002 l 5e-4,-5.2e-4 c 15.8605,-15.86048 34.3881,-27.09249 54.7476,-33.51423 z"
         style="fill:#000000;fill-opacity:1;stroke:none;stroke-width:0.79375;stroke-linejoin:bevel;stroke-miterlimit:6.7;paint-order:fill markers stroke"
         id="path127" />
      <path
         d="m 1353.3344,166.92056 c -20.2014,4.22197 -39.2064,14.26737 -53.8096,28.87059 v 5.2e-4 c -19.6724,19.67252 -31.1256,47.32062 -31.1252,75.14166 3e-4,23.5791 8.2975,46.98275 22.7826,65.56344 v -61.45154 -14.80427 -18.09398 l 2.7373,-0.54829 c 1.9325,3.04155 4.686,7.31674 7.4538,11.61324 3.3629,-13.42096 10.2634,-26.19678 19.8194,-35.75285 13.7265,-13.72649 34.0632,-22.15083 53.4748,-22.15059 0.3047,1e-5 0.6126,0.045 0.9178,0.0491 z"
         style="fill:#000000;fill-opacity:1;stroke:none;stroke-width:0.79375;stroke-linejoin:bevel;stroke-miterlimit:6.7;paint-order:fill markers stroke"
         id="path126" />
      <path
         d="m 1458.1503,205.36783 v 20.28816 h 12.4054 c -3.3866,-7.19576 -7.5186,-14.01973 -12.4054,-20.28816 z"
         style="fill:#000000;fill-opacity:1;stroke:none;stroke-width:0.79375;stroke-linejoin:bevel;stroke-miterlimit:6.7;paint-order:fill markers stroke"
         id="path125" />
      <path
         d="m 1371.4636,225.65599 c -3.8362,0.3681 -7.8996,1.46521 -11.8897,2.93161 -6.5547,2.40891 -12.8216,5.94081 -17.0667,10.18594 v 5.2e-4 c -4.2451,4.24524 -7.7771,10.51192 -10.1859,17.06665 -1.4677,3.99359 -2.5649,8.06053 -2.9322,11.89954 v 6.3872 c 0.3673,3.83883 1.4646,7.90537 2.9316,11.89799 2.4089,6.55557 5.9404,12.8222 10.1844,17.06614 v 0.002 c 4.2441,4.24338 10.5115,7.77529 17.0672,10.18439 3.9956,1.46834 8.0649,2.56575 11.9057,2.93264 h 6.3748 c 3.8403,-0.36683 7.909,-1.46438 11.9042,-2.93264 6.5546,-2.40888 12.8215,-5.9405 17.0666,-10.18543 l 6e-4,-5.1e-4 c 4.245,-4.24501 7.7769,-10.51144 10.1859,-17.06614 1.4673,-3.99253 2.5641,-8.05887 2.9316,-11.89695 v -6.39083 c -0.3675,-3.83821 -1.4649,-7.90435 -2.9321,-11.89695 -2.4092,-6.55592 -5.9408,-12.82347 -10.1844,-17.06769 -4e-4,-4.2e-4 -6e-4,-0.001 -10e-4,-0.002 -4.2441,-4.24414 -10.5115,-7.77555 -17.0672,-10.18439 -3.9888,-1.46564 -8.051,-2.56297 -11.8866,-2.93109 z m 3.2039,30.33252 c 1.8603,2e-5 9.2572,3.06581 10.5663,4.37493 3e-4,2.6e-4 8e-4,10e-4 10e-4,0.002 1.3102,1.31192 4.376,8.71128 4.376,10.56886 0,1.85493 -3.0632,9.25245 -4.377,10.56628 -1.3144,1.31394 -8.7115,4.37697 -10.5663,4.37699 -1.8576,3e-5 -9.257,-3.06585 -10.5689,-4.37596 -2e-4,-2.6e-4 0,-7.6e-4 0,-0.001 -1.3091,-1.3091 -4.3749,-8.70599 -4.3749,-10.56628 -10e-5,-1.85528 3.0619,-9.25313 4.3764,-10.56835 l 6e-4,-5.1e-4 c 1.3143,-1.31435 8.7128,-4.3765 10.5683,-4.37648 z"
         style="fill:#000000;fill-opacity:1;stroke:none;stroke-width:0.79375;stroke-linejoin:bevel;stroke-miterlimit:6.7;paint-order:fill markers stroke"
         id="path124" />
      <path
         d="m 1200.3076,82.591858 v 13.982609 29.275733 53.89077 c 9.1722,-17.56589 20.9689,-33.80737 35.1643,-48.00276 17.049,-17.049 37.0505,-30.62991 58.7607,-40.34999 l -6.8828,-8.796362 h -39.0994 z"
         style="fill:#000000;fill-opacity:1;stroke:none;stroke-width:0.79375;stroke-linejoin:bevel;stroke-miterlimit:6.7;paint-order:fill markers stroke"
         id="path123" />
      <path
         d="m 1200.3076,362.12777 v 53.8918 29.27263 13.98158 h 47.9397 42.9349 v -10.14616 c -20.537,-9.61194 -39.4574,-22.74404 -55.7103,-38.99658 v -0.002 c -14.1961,-14.19605 -25.9917,-30.43737 -35.1627,-48.00172 z"
         style="fill:#000000;fill-opacity:1;stroke:none;stroke-width:0.79375;stroke-linejoin:bevel;stroke-miterlimit:6.7;paint-order:fill markers stroke"
         id="path122" />
      <path
         d="m 1549.0248,362.12415 c -9.1721,17.56591 -20.969,33.80751 -35.1642,48.00275 -16.9514,16.95131 -36.8212,30.47577 -58.3877,40.18463 l 7.057,8.96225 h 38.5511 47.9438 v -13.9821 -29.27625 z"
         style="fill:#000000;fill-opacity:1;stroke:none;stroke-width:0.79375;stroke-linejoin:bevel;stroke-miterlimit:6.7;paint-order:fill markers stroke"
         id="path121" />
      <path
         d="m 1458.1503,82.591858 v 10.146151 c 20.5378,9.612171 39.4591,22.744821 55.7129,38.998651 v 0.002 c 14.1945,14.19489 25.9895,30.4347 35.1601,47.99759 V 125.84607 96.574984 82.591858 h -47.9386 z"
         style="fill:#000000;fill-opacity:1;stroke:none;stroke-width:0.79375;stroke-linejoin:bevel;stroke-miterlimit:6.7;paint-order:fill markers stroke"
         id="path120" />
    </g>
  </g>
</svg>
